<?xml version="1.0" encoding="utf-8"?>
<!-- Generator: Adobe Illustrator 24.2.1, SVG Export Plug-In . SVG Version: 6.00 Build 0)  -->
<svg version="1.1" id="Layer_1" xmlns="http://www.w3.org/2000/svg" xmlns:xlink="http://www.w3.org/1999/xlink" x="0px" y="0px"
	 viewBox="0 0 72.4 72.4" style="enable-background:new 0 0 72.4 72.4;" xml:space="preserve">
<style type="text/css">
	.st0{fill:#EA3C53;}
</style>
<path class="st0" d="M36.2,0C16.2,0,0,16.2,0,36.2c0,20,16.2,36.2,36.2,36.2c20,0,36.2-16.2,36.2-36.2C72.4,16.2,56.2,0,36.2,0z
	 M52.1,46.8c1.4,1.4,1,4.1-1,5.9c-1.9,1.9-4.6,2.2-6,0.8l-9-9.3l-9.3,9c-1.4,1.4-4.1,0.9-5.9-1s-2.2-4.6-0.8-6l9.3-9l-9-9.3
	c-1.4-1.4-0.9-4.1,1-5.9c1.9-1.9,4.6-2.2,6-0.8l9,9.3l9.3-9c1.4-1.4,4.1-1,5.9,1c1.9,1.9,2.2,4.6,0.8,6l-9.3,9L52.1,46.8z"/>
</svg>
