<svg xmlns="http://www.w3.org/2000/svg" viewBox="0 0 1381.73 426.97"><defs><style>.cls-1{fill:#186f3e;}.cls-2{fill:#641d15;}.cls-3{font-size:39px;}.cls-3,.cls-4{font-family:ArialRoundedMTBold, Arial Rounded MT Bold;}.cls-4{font-size:300px;fill:#1d1d1b;}.cls-5{letter-spacing:-0.02em;}</style></defs><g id="icon"><path class="cls-1" d="M392.31,172.14A20.36,20.36,0,0,0,421,169.3h0a20.36,20.36,0,0,0-2.84-28.66l-5.41-4a124.54,124.54,0,0,0-159.42-3l-9.55,7a20.36,20.36,0,0,0-2.84,28.66h0a20.36,20.36,0,0,0,28.66,2.84l7.4-6.06a84.34,84.34,0,0,1,108.94.42Z"/><path class="cls-2" d="M206.66,230.75a124.54,124.54,0,0,0,249.08,0m-40.13,0a84.41,84.41,0,0,1-168.82,0"/><rect class="cls-1" x="311.81" y="209.24" width="143.46" height="39.01" rx="19.5"/><rect class="cls-1" x="28.26" y="209.24" width="218.53" height="39.01" rx="19.5"/><path class="cls-1" d="M449.37,109.13c-30.49-29.29-72.59-50.07-118.17-48C212.49,66.45,162.14,155.32,162.14,249c0,5.91-.59-5.76,0,0h0l.28,75.67a19.81,19.81,0,0,1-19.81,19.81h0a19.81,19.81,0,0,1-19.81-19.81L122.56,249h0c-.48-5.76,0,5.87,0,0,0-115.5,52.27-218,208.64-227.36C388.27,18.21,440.55,45,478.3,82.15h0c7.73,7.74,8.11,20.69.37,28.43h0c-7.73,7.73-21.56,6.29-29.3-1.45h0"/></g><g id="text_on_path" data-name="text on path"><text class="cls-3" transform="matrix(0.81, 0.58, -0.58, 0.81, 227.51, 355.02)">F</text><text class="cls-3" transform="translate(247.66 368.99) rotate(29.33)">l</text><text class="cls-3" transform="matrix(0.92, 0.39, -0.39, 0.92, 258.1, 375.19)">o</text><text class="cls-3" transform="translate(282.17 385.41) rotate(11.92)">w</text><text class="cls-3" transform="matrix(1, 0.03, -0.03, 1, 315.66, 391.77)">s</text><text class="cls-3" transform="translate(339.16 392.71) rotate(-8.2)">G</text><text class="cls-3" transform="matrix(0.95, -0.3, 0.3, 0.95, 371.74, 387.27)">r</text><text class="cls-3" transform="matrix(0.91, -0.42, 0.42, 0.91, 388.84, 382.02)">e</text><text class="cls-3" transform="matrix(0.83, -0.56, 0.56, 0.83, 411.69, 371.18)">e</text><text class="cls-3" transform="translate(432.59 356.91) rotate(-42.97)">n</text></g><g id="text"><text class="cls-4" transform="translate(466.66 356.03)">Boo<tspan class="cls-5" x="578.17" y="0">k</tspan><tspan x="742.68" y="0">s</tspan></text></g></svg>